<svg xmlns="http://www.w3.org/2000/svg" viewBox="0 0 480 480">
  <path d="M339.9 161.8l-5.1-17a36.7 36.7 0 0 0-69.6 0l-5.1 17a95 95 0 0 0-2.7 44 41.4 41.4 0 0 0 21.4 28.8L273 363.2a25.3 25.3 0 0 0 6.4 19.7 28 28 0 0 0 41.3 0 25 25 0 0 0 6.4-19.2l-5.8-129.1a41.4 41.4 0 0 0 21.3-28.8 95 95 0 0 0-2.7-44zM326.8 203c-1.7 8.9-8 16.1-16.6 19.1a8 8 0 0 0-5.2 7.9l6.1 135c.3 2.6-.6 5.3-2.4 7.2a12.4 12.4 0 0 1-17.4 0 9.6 9.6 0 0 1-2.3-7.7l6-134.5a8 8 0 0 0-5.2-7.9 25.4 25.4 0 0 1-16.6-19.1 78.9 78.9 0 0 1 2.2-36.5l5.1-17a20.7 20.7 0 0 1 39 0l5 17a79 79 0 0 1 2.3 36.5zM216 120a8 8 0 0 0-8 8v68.7l-21.7 21.6a8 8 0 0 0-2.3 6.1l7 140c.2 3-1 6-3 8.2a11.3 11.3 0 0 1-16 0 10.9 10.9 0 0 1-3-8.2l7-140a8 8 0 0 0-2.3-6L152 196.6V128a8 8 0 0 0-16 0v72a8 8 0 0 0 2.3 5.7l21.5 21.5-6.8 136.4a27 27 0 1 0 54 0l-6.8-136.4 21.5-21.5a8 8 0 0 0 2.3-5.7v-72a8 8 0 0 0-8-8z"/>
  <path d="M168 120a8 8 0 0 0-8 8v64a8 8 0 0 0 16 0v-64a8 8 0 0 0-8-8zM192 120a8 8 0 0 0-8 8v64a8 8 0 0 0 16 0v-64a8 8 0 0 0-8-8z"/>
  <path d="M240 0a240 240 0 1 0 0 480 240 240 0 0 0 0-480zm0 464a224 224 0 1 1 0-448 224 224 0 0 1 0 448z"/>
  <path d="M266 390.2a8 8 0 0 0-9-7.2 147 147 0 0 1-34 0 8 8 0 1 0-1.8 16 162 162 0 0 0 37.6 0 8 8 0 0 0 7.2-8.8zM362.4 137a8 8 0 0 0-12.3 10.3 144 144 0 0 1-8.5 194.7 8 8 0 0 0 11.3 11.3 160 160 0 0 0 9.5-216.4zM186.4 105.7zM277.7 84.5c-31.2-7.5-64-5.5-94.1 5.8a8 8 0 0 0 5.6 15c27-10.2 56.6-12 84.8-5.3a8 8 0 1 0 3.7-15.5zM138 341.6A143 143 0 0 1 96 240a143 143 0 0 1 27.5-84.7 8 8 0 1 0-12.9-9.4 160 160 0 0 0 16 207 8 8 0 0 0 11.4-11.3z"/>
</svg>